# xmcd
#
# Track frame offsets: 
#        150
#        20931
#        39295
#        57493
#        82295
#        99775
#        113987
#        126167
#        144854
#        163589
#        180144
#
# Disc length: 2697 seconds
#
# Revision: 2
# Processed by: cddbd v1.5.2PL0 Copyright (c) Steve Scherf et al.
# Submitted via: ExactAudioCopy v0.99pb4
#
DISCID=8b0a870b
DTITLE=Александр Розенбаум - На плантациях любви
DYEAR=1996
DGENRE=Chanson
TTITLE0=Воскресение
TTITLE1=Где-нибудь, как-нибудь
TTITLE2=Не хочу стареть
TTITLE3=На плантациях любви
TTITLE4=Ветер-конокрад
TTITLE5=Необычно, незнакомо
TTITLE6=Одинокий волк
TTITLE7=Мой брат
TTITLE8=Афганская вьюга
TTITLE9=Перекати-поле
TTITLE10=Ау
EXTD=
EXTT0=
EXTT1=
EXTT2=
EXTT3=
EXTT4=
EXTT5=
EXTT6=
EXTT7=
EXTT8=
EXTT9=
EXTT10=
PLAYORDER=
